<?xml version="1.0" encoding="UTF-8" standalone="no"?>
<svg
   xmlns:dc="http://purl.org/dc/elements/1.1/"
   xmlns:cc="http://creativecommons.org/ns#"
   xmlns:rdf="http://www.w3.org/1999/02/22-rdf-syntax-ns#"
   xmlns:svg="http://www.w3.org/2000/svg"
   xmlns="http://www.w3.org/2000/svg"
   xmlns:sodipodi="http://sodipodi.sourceforge.net/DTD/sodipodi-0.dtd"
   xmlns:inkscape="http://www.inkscape.org/namespaces/inkscape"
   version="1.0"
   width="211.000000pt"
   height="174.000000pt"
   viewBox="0 0 211.000000 174.000000"
   preserveAspectRatio="xMidYMid meet"
   id="svg2"
   inkscape:version="0.91 r13725"
   sodipodi:docname="config-mouse-over.svg">
  <metadata
     id="metadata12">
    <rdf:RDF>
      <cc:Work
         rdf:about="">
        <dc:format>image/svg+xml</dc:format>
        <dc:type
           rdf:resource="http://purl.org/dc/dcmitype/StillImage" />
        <dc:title></dc:title>
      </cc:Work>
    </rdf:RDF>
  </metadata>
  <defs
     id="defs10" />
  <sodipodi:namedview
     pagecolor="#ffffff"
     bordercolor="#666666"
     borderopacity="1"
     objecttolerance="10"
     gridtolerance="10"
     guidetolerance="10"
     inkscape:pageopacity="0"
     inkscape:pageshadow="2"
     inkscape:window-width="1920"
     inkscape:window-height="1147"
     id="namedview8"
     showgrid="false"
     inkscape:zoom="1.0850575"
     inkscape:cx="131.875"
     inkscape:cy="108.75"
     inkscape:window-x="-8"
     inkscape:window-y="-8"
     inkscape:window-maximized="1"
     inkscape:current-layer="svg2" />
  <g
     transform="translate(0.000000,174.000000) scale(0.100000,-0.100000)"
     fill="#000000"
     stroke="none"
     id="g4"
     style="fill:#800080;fill-opacity:1">
    <path
       d="M1001 1491 c-7 -5 -21 -46 -30 -91 l-16 -83 -42 -15 -42 -16 -58 41 c-91 62 -88 63 -160 -12 -35 -36 -63 -73 -63 -83 0 -9 19 -46 43 -82 l44 -65 -19 -42 c-18 -40 -19 -41 -88 -54 -100 -18 -104 -22 -108 -117 -5 -108 0 -116 91 -132 41 -7 79 -15 83 -19 5 -3 17 -23 27 -44 l18 -39 -46 -63 c-25 -35 -45 -72 -45 -82 0 -21 119 -143 139 -143 8 0 44 20 80 45 l66 45 42 -17 c40 -17 41 -19 53 -88 19 -108 15 -105 130 -105 l98 0 11 33 c5 17 13 53 16 78 8 56 11 60 58 81 l38 18 68 -45 c38 -25 75 -45 82 -45 22 0 139 123 139 145 -1 11 -20 47 -44 79 l-43 59 16 41 c8 23 19 44 24 47 5 4 43 12 83 19 57 9 77 16 85 32 15 28 8 186 -8 196 -7 5 -47 14 -88 21 -72 12 -76 14 -90 48 -21 50 -20 58 25 120 22 31 40 66 40 78 0 22 -117 145 -138 145 -5 0 -39 -20 -75 -45 -37 -25 -71 -45 -77 -45 -16 0 -74 31 -82 43 -4 6 -12 40 -18 76 -6 36 -16 71 -22 78 -12 15 -175 18 -197 4z m201 -470 c139 -96 100 -306 -62 -342 -112 -25 -230 68 -230 181 0 69 50 146 115 176 45 21 135 13 177 -15z"
       id="path6"
       style="fill:#800080;fill-opacity:1" />
  </g>
</svg>
