<?xml version="1.0" encoding="UTF-8" standalone="no"?>
<svg
   xmlns:dc="http://purl.org/dc/elements/1.1/"
   xmlns:cc="http://creativecommons.org/ns#"
   xmlns:rdf="http://www.w3.org/1999/02/22-rdf-syntax-ns#"
   xmlns:svg="http://www.w3.org/2000/svg"
   xmlns="http://www.w3.org/2000/svg"
   xmlns:sodipodi="http://sodipodi.sourceforge.net/DTD/sodipodi-0.dtd"
   xmlns:inkscape="http://www.inkscape.org/namespaces/inkscape"
   version="1.0"
   width="306.000000pt"
   height="383.000000pt"
   viewBox="0 0 306.000000 383.000000"
   preserveAspectRatio="xMidYMid meet"
   id="svg2"
   inkscape:version="0.91 r13725"
   sodipodi:docname="question-mark - Copia (1).svg">
  <defs
     id="defs14" />
  <sodipodi:namedview
     pagecolor="#ffffff"
     bordercolor="#666666"
     borderopacity="1"
     objecttolerance="10"
     gridtolerance="10"
     guidetolerance="10"
     inkscape:pageopacity="0"
     inkscape:pageshadow="2"
     inkscape:window-width="1366"
     inkscape:window-height="715"
     id="namedview12"
     showgrid="false"
     inkscape:zoom="0.49295039"
     inkscape:cx="191.25"
     inkscape:cy="239.375"
     inkscape:window-x="1912"
     inkscape:window-y="214"
     inkscape:window-maximized="1"
     inkscape:current-layer="svg2" />
  <metadata
     id="metadata4">
Created by potrace 1.15, written by Peter Selinger 2001-2017
<rdf:RDF>
  <cc:Work
     rdf:about="">
    <dc:format>image/svg+xml</dc:format>
    <dc:type
       rdf:resource="http://purl.org/dc/dcmitype/StillImage" />
  </cc:Work>
</rdf:RDF>
</metadata>
  <g
     transform="translate(0.000000,383.000000) scale(0.100000,-0.100000)"
     fill="#000000"
     stroke="none"
     id="g6"
     style="fill:#800080;fill-opacity:1">
    <path
       d="M1415 3613 c-275 -25 -521 -138 -701 -321 -175 -178 -246 -357 -279 -705 l-7 -67 284 2 283 3 7 60 c26 211 134 359 301 414 130 44 342 44 463 2 165 -58 243 -160 244 -316 0 -99 -36 -211 -98 -302 -37 -55 -223 -244 -380 -388 -110 -101 -196 -242 -231 -382 -21 -83 -41 -263 -41 -375 l0 -68 244 0 243 0 7 53 c3 28 6 72 6 97 1 72 27 179 65 258 41 87 88 136 295 309 285 237 407 398 457 601 25 104 22 353 -6 456 -97 359 -389 599 -803 660 -96 15 -250 18 -353 9z"
       id="path8"
       style="fill:#800080;fill-opacity:1" />
    <path
       d="M1412 826 c-170 -56 -247 -250 -168 -423 50 -108 143 -166 266 -167 88 -1 142 21 204 81 62 60 90 132 90 228 0 67 -4 88 -26 130 -54 104 -135 156 -252 162 -43 2 -88 -3 -114 -11z"
       id="path10"
       style="fill:#800080;fill-opacity:1" />
  </g>
</svg>
