<?xml version="1.0" encoding="UTF-8" standalone="no"?>
<svg
   xmlns:dc="http://purl.org/dc/elements/1.1/"
   xmlns:cc="http://creativecommons.org/ns#"
   xmlns:rdf="http://www.w3.org/1999/02/22-rdf-syntax-ns#"
   xmlns:svg="http://www.w3.org/2000/svg"
   xmlns="http://www.w3.org/2000/svg"
   xmlns:sodipodi="http://sodipodi.sourceforge.net/DTD/sodipodi-0.dtd"
   xmlns:inkscape="http://www.inkscape.org/namespaces/inkscape"
   version="1.0"
   width="218.000000pt"
   height="170.000000pt"
   viewBox="0 0 218.000000 170.000000"
   preserveAspectRatio="xMidYMid meet"
   id="svg2"
   inkscape:version="0.91 r13725"
   sodipodi:docname="keypad-mouse-over.svg">
  <metadata
     id="metadata30">
    <rdf:RDF>
      <cc:Work
         rdf:about="">
        <dc:format>image/svg+xml</dc:format>
        <dc:type
           rdf:resource="http://purl.org/dc/dcmitype/StillImage" />
        <dc:title></dc:title>
      </cc:Work>
    </rdf:RDF>
  </metadata>
  <defs
     id="defs28" />
  <sodipodi:namedview
     pagecolor="#ffffff"
     bordercolor="#666666"
     borderopacity="1"
     objecttolerance="10"
     gridtolerance="10"
     guidetolerance="10"
     inkscape:pageopacity="0"
     inkscape:pageshadow="2"
     inkscape:window-width="1366"
     inkscape:window-height="715"
     id="namedview26"
     showgrid="false"
     inkscape:zoom="2.2211765"
     inkscape:cx="159.50209"
     inkscape:cy="96.308796"
     inkscape:window-x="1912"
     inkscape:window-y="214"
     inkscape:window-maximized="1"
     inkscape:current-layer="svg2" />
  <g
     transform="translate(0.000000,170.000000) scale(0.100000,-0.100000)"
     fill="#000000"
     stroke="none"
     id="g4"
     style="fill:#800080;fill-opacity:1">
    <path
       d="M638 1600 c-26 -16 -41 -75 -34 -143 8 -86 22 -97 136 -97 125 0 135 10 135 125 0 115 -11 125 -134 125 -47 0 -94 -5 -103 -10z"
       id="path6"
       style="fill:#800080;fill-opacity:1" />
    <path
       d="M993 1598 c-55 -27 -59 -184 -5 -224 11 -9 48 -13 103 -14 123 0 134 10 134 125 0 114 -11 125 -129 124 -44 0 -91 -5 -103 -11z"
       id="path8"
       style="fill:#800080;fill-opacity:1" />
    <path
       d="M1330 1592 c-23 -19 -25 -27 -25 -107 0 -116 10 -125 136 -125 120 0 129 9 129 123 0 116 -5 121 -122 125 -82 3 -97 1 -118 -16z"
       id="path10"
       style="fill:#800080;fill-opacity:1" />
    <path
       d="M624 1299 c-16 -18 -19 -34 -16 -102 4 -113 9 -117 133 -117 93 0 98 1 118 26 30 38 30 150 0 188 -20 25 -25 26 -118 26 -87 0 -100 -2 -117 -21z"
       id="path12"
       style="fill:#800080;fill-opacity:1" />
    <path
       d="M974 1299 c-15 -17 -19 -36 -19 -99 0 -92 17 -120 72 -120 30 0 33 3 33 30 0 40 24 86 53 102 12 7 42 15 67 18 53 6 61 24 30 63 -21 26 -25 27 -119 27 -87 0 -100 -2 -117 -21z"
       id="path14"
       style="fill:#800080;fill-opacity:1" />
    <path
       d="M1325 1300 c-20 -22 -31 -101 -21 -154 11 -59 25 -66 135 -66 126 0 131 4 131 122 0 113 -5 118 -132 118 -82 0 -97 -3 -113 -20z"
       id="path16"
       style="fill:#800080;fill-opacity:1" />
    <path
       d="M1133 1186 c-18 -8 -34 -16 -35 -18 -1 -2 -4 -93 -7 -202 l-6 -199 -25 -7 c-14 -4 -65 -13 -114 -19 -113 -15 -205 -45 -250 -83 -32 -26 -36 -35 -36 -75 0 -57 26 -222 51 -328 10 -44 19 -101 19 -127 l0 -48 280 0 c311 0 317 1 365 64 32 42 68 134 89 225 18 77 39 344 31 372 -8 26 -38 32 -87 19 -65 -18 -84 -41 -93 -113 -3 -33 -14 -77 -23 -97 -16 -34 -17 -23 -20 286 -2 299 -4 322 -21 338 -26 24 -80 29 -118 12z"
       id="path18"
       style="fill:#800080;fill-opacity:1" />
    <path
       d="M642 1033 c-24 -9 -43 -63 -41 -116 5 -112 30 -131 158 -126 109 5 116 13 116 125 0 114 -11 124 -134 123 -47 0 -92 -3 -99 -6z"
       id="path20"
       style="fill:#800080;fill-opacity:1" />
    <path
       d="M980 1022 c-18 -14 -24 -32 -28 -73 -6 -79 11 -134 48 -149 56 -23 61 -14 58 117 l-3 118 -26 3 c-14 2 -36 -5 -49 -16z"
       id="path22"
       style="fill:#800080;fill-opacity:1" />
    <path
       d="M1329 1021 c-22 -18 -24 -27 -24 -106 0 -114 11 -125 127 -125 76 0 114 10 130 34 4 6 8 48 8 94 0 113 -9 122 -129 122 -73 0 -93 -3 -112 -19z"
       id="path24"
       style="fill:#800080;fill-opacity:1" />
  </g>
</svg>
