<?xml version="1.0" standalone="no"?>
<!DOCTYPE svg PUBLIC "-//W3C//DTD SVG 20010904//EN"
 "http://www.w3.org/TR/2001/REC-SVG-20010904/DTD/svg10.dtd">
<svg version="1.0" xmlns="http://www.w3.org/2000/svg"
 width="512.000000pt" height="512.000000pt" viewBox="0 0 512.000000 512.000000"
 preserveAspectRatio="xMidYMid meet">
<metadata>
Created by potrace 1.15, written by Peter Selinger 2001-2017
</metadata>
<g transform="translate(0.000000,512.000000) scale(0.100000,-0.100000)"
fill="#000000" stroke="none">
<path d="M1957 5104 c-101 -22 -183 -54 -294 -115 -80 -44 -118 -74 -203 -159
-88 -88 -115 -123 -167 -215 -102 -183 -141 -349 -130 -549 21 -357 216 -663
529 -831 46 -25 86 -45 91 -45 4 0 7 42 7 93 l0 93 -42 24 c-107 58 -217 165
-290 280 -260 407 -104 972 326 1180 139 68 232 90 372 90 174 0 304 -35 439
-117 384 -235 514 -719 298 -1113 -69 -127 -194 -254 -320 -326 l-33 -18 0
-93 c0 -51 2 -93 5 -93 13 0 135 66 187 102 80 53 216 192 271 275 129 193
189 454 157 678 -40 280 -172 509 -395 681 -72 55 -246 140 -340 165 -106 29
-365 36 -468 13z"/>
<path d="M1992 4740 c-115 -31 -187 -74 -282 -170 -96 -96 -138 -168 -170
-296 -56 -224 15 -463 186 -624 l59 -55 3 117 c2 110 1 118 -22 153 -53 77
-70 141 -71 260 0 108 1 111 39 190 52 106 128 183 233 233 72 34 86 37 184
40 100 4 110 2 189 -29 203 -80 328 -300 292 -511 -13 -73 -50 -168 -78 -199
-12 -13 -14 -41 -12 -135 l3 -119 77 77 c78 78 120 149 164 273 25 71 25 268
0 350 -59 195 -204 352 -395 428 -67 27 -90 30 -201 34 -101 2 -139 -1 -198
-17z"/>
<path d="M2109 4319 c-58 -9 -96 -29 -138 -71 -72 -73 -65 58 -71 -1473 -3
-790 -9 -1369 -14 -1355 -4 14 -38 106 -74 205 -190 525 -174 487 -228 539
-74 72 -204 87 -309 37 -72 -34 -95 -58 -129 -131 -42 -91 -39 -112 88 -492
62 -189 153 -462 200 -607 48 -146 100 -294 117 -330 46 -97 118 -196 206
-282 170 -167 363 -266 639 -325 120 -26 145 -28 364 -29 229 0 238 1 335 28
198 57 329 133 474 279 145 145 225 275 291 478 113 344 156 740 131 1185 -19
334 -31 445 -53 498 -23 54 -83 111 -136 128 -46 15 -168 7 -208 -14 -42 -22
-90 -71 -114 -116 l-19 -36 -1 107 c0 121 -7 145 -57 206 -78 95 -214 120
-330 62 -63 -32 -86 -56 -115 -125 l-17 -40 0 95 c-1 122 -13 162 -64 218 -59
63 -104 82 -203 82 -105 0 -172 -31 -215 -98 l-29 -46 0 570 c0 585 -4 653
-40 724 -50 98 -160 148 -281 129z"/>
</g>
</svg>
