<?xml version="1.0" standalone="no"?>
<!DOCTYPE svg PUBLIC "-//W3C//DTD SVG 20010904//EN"
 "http://www.w3.org/TR/2001/REC-SVG-20010904/DTD/svg10.dtd">
<svg version="1.0" xmlns="http://www.w3.org/2000/svg"
 width="200.000000pt" height="200.000000pt" viewBox="0 0 200.000000 200.000000"
 preserveAspectRatio="xMidYMid meet">
<metadata>
Created by potrace 1.15, written by Peter Selinger 2001-2017
</metadata>
<g transform="translate(0.000000,200.000000) scale(0.100000,-0.100000)"
fill="#000000" stroke="none">
<path d="M29 1731 l-29 -29 0 -624 c0 -620 0 -624 21 -647 11 -12 32 -26 46
-32 29 -11 1043 -13 1043 -1 0 4 -35 42 -78 85 l-77 77 -398 0 -397 0 0 520 0
520 840 0 840 0 0 -520 0 -520 -45 0 -45 0 0 -62 c0 -35 -3 -73 -6 -85 -6 -23
-5 -23 79 -23 95 0 125 8 156 41 21 23 21 27 21 647 l0 624 -29 29 -29 29
-942 0 -942 0 -29 -29z"/>
<path d="M1210 1468 c-52 -15 -86 -43 -109 -91 -27 -56 -27 -113 2 -167 36
-69 45 -62 48 39 4 86 6 92 34 121 41 40 89 48 133 20 44 -27 62 -74 62 -161
0 -64 2 -70 16 -58 46 38 62 145 31 206 -22 41 -69 80 -115 93 -43 12 -55 12
-102 -2z"/>
<path d="M1220 1340 c-19 -19 -20 -33 -20 -390 0 -203 -3 -370 -8 -370 -4 0
-54 47 -112 105 -90 90 -109 105 -137 105 -35 0 -63 -29 -63 -65 0 -14 75 -95
223 -242 246 -244 252 -248 367 -241 121 7 207 84 230 207 14 76 13 413 -2
446 -12 26 -42 40 -75 33 -16 -3 -19 -17 -24 -113 l-5 -110 -2 148 c-2 134 -4
149 -23 168 -14 14 -30 19 -52 17 l-32 -3 -5 -145 -6 -145 -2 156 c-2 173 -8
189 -69 189 -50 0 -57 -19 -64 -169 -4 -109 -5 -84 -7 132 -2 252 -3 268 -22
287 -11 11 -31 20 -45 20 -14 0 -34 -9 -45 -20z"/>
</g>
</svg>
