<?xml version="1.0" encoding="UTF-8" standalone="no"?>
<svg
   xmlns:osb="http://www.openswatchbook.org/uri/2009/osb"
   xmlns:dc="http://purl.org/dc/elements/1.1/"
   xmlns:cc="http://creativecommons.org/ns#"
   xmlns:rdf="http://www.w3.org/1999/02/22-rdf-syntax-ns#"
   xmlns:svg="http://www.w3.org/2000/svg"
   xmlns="http://www.w3.org/2000/svg"
   xmlns:sodipodi="http://sodipodi.sourceforge.net/DTD/sodipodi-0.dtd"
   xmlns:inkscape="http://www.inkscape.org/namespaces/inkscape"
   version="1.0"
   width="256.000000pt"
   height="256.000000pt"
   viewBox="0 0 256.000000 256.000000"
   preserveAspectRatio="xMidYMid meet"
   id="svg2"
   inkscape:version="0.91 r13725"
   sodipodi:docname="voice-icon.svg">
  <defs
     id="defs14">
    <linearGradient
       inkscape:collect="always"
       id="linearGradient4162"
       osb:paint="gradient">
      <stop
         style="stop-color:#000000;stop-opacity:1;"
         offset="0"
         id="stop4164" />
      <stop
         style="stop-color:#000000;stop-opacity:0;"
         offset="1"
         id="stop4166" />
    </linearGradient>
  </defs>
  <sodipodi:namedview
     pagecolor="#ffffff"
     bordercolor="#666666"
     borderopacity="1"
     objecttolerance="10"
     gridtolerance="10"
     guidetolerance="10"
     inkscape:pageopacity="0"
     inkscape:pageshadow="2"
     inkscape:window-width="1366"
     inkscape:window-height="715"
     id="namedview12"
     showgrid="false"
     inkscape:zoom="0.7375"
     inkscape:cx="160"
     inkscape:cy="160"
     inkscape:window-x="1912"
     inkscape:window-y="214"
     inkscape:window-maximized="1"
     inkscape:current-layer="svg2" />
  <metadata
     id="metadata4">
Created by potrace 1.15, written by Peter Selinger 2001-2017
<rdf:RDF>
  <cc:Work
     rdf:about="">
    <dc:format>image/svg+xml</dc:format>
    <dc:type
       rdf:resource="http://purl.org/dc/dcmitype/StillImage" />
    <dc:title></dc:title>
  </cc:Work>
</rdf:RDF>
</metadata>
  <g
     transform="matrix(0.08686441,0,0,-0.08897849,17.355932,244.06789)"
     id="g6"
     style="fill:#007cc4;fill-opacity:1;stroke:#000000;stroke-width:409.48599243;stroke-miterlimit:4;stroke-dasharray:none;stroke-opacity:0">
    <path
       d="m 13,2549 c -15,-15 -17,-58 -4,-78 6,-10 41,-17 114,-22 219,-15 361,-49 490,-117 94,-48 160,-110 196,-184 38,-75 40,-133 9,-187 l -22,-39 54,-170 c 49,-157 52,-173 38,-189 -27,-31 -48,-81 -48,-113 0,-44 19,-76 142,-243 63,-84 108,-153 105,-161 -3,-8 -32,-21 -64,-30 -32,-9 -65,-20 -73,-25 -21,-12 -24,-61 -6,-122 9,-29 13,-56 9,-59 -5,-4 -55,-15 -113,-25 -132,-22 -140,-26 -140,-72 0,-31 8,-45 63,-97 34,-34 71,-66 81,-72 19,-10 19,-11 -3,-33 -18,-18 -22,-30 -17,-54 3,-18 9,-58 12,-90 C 848,262 808,248 556,275 425,289 385,289 349,280 295,265 240,211 221,152 l -14,-42 -81,0 C 32,110 0,95 0,51 0,5 14,0 152,0 c 145,0 140,-3 173,98 25,77 44,84 205,65 173,-20 282,-14 338,17 73,41 100,108 84,208 -9,52 -9,53 20,68 34,18 51,54 42,92 -9,39 -28,57 -90,87 -30,15 -54,30 -54,35 0,4 24,11 53,15 122,17 153,50 143,154 l -6,68 40,12 c 21,6 56,27 76,46 35,33 36,37 32,86 -6,55 -2,49 -172,279 l -88,120 28,37 c 46,60 44,113 -9,276 -44,134 -45,140 -30,175 10,25 14,61 11,117 -4,110 -43,189 -136,276 -145,137 -368,213 -662,226 -95,4 -128,2 -137,-8 z"
       id="path8"
       style="fill:#007cc4;fill-opacity:1;stroke:#000000;stroke-width:409.48599243;stroke-miterlimit:4;stroke-dasharray:none;stroke-opacity:0"
       inkscape:connector-curvature="0" />
    <path
       d="m 1807,1425 c -19,-18 -12,14 -97,-480 -39,-226 -74,-420 -78,-433 -5,-16 -27,57 -76,255 -38,153 -76,286 -84,296 -16,18 -48,22 -71,8 -7,-5 -46,-96 -86,-202 l -73,-194 -48,-5 c -39,-4 -51,-10 -63,-31 -13,-24 -13,-29 2,-53 16,-24 22,-26 97,-26 94,0 91,-4 146,145 20,55 39,103 43,107 4,4 42,-134 85,-306 43,-173 84,-324 92,-335 17,-24 52,-27 77,-8 14,9 35,111 97,467 44,250 80,460 81,465 0,6 45,-165 99,-380 99,-392 108,-415 149,-415 42,1 48,14 116,270 31,118 64,240 72,270 l 16,55 78,-310 c 79,-313 87,-335 130,-335 27,0 49,28 49,61 0,26 -175,744 -201,827 -17,51 -85,57 -106,9 -5,-12 -41,-140 -79,-284 -38,-144 -72,-259 -75,-255 -3,4 -50,184 -104,401 -67,270 -104,400 -117,413 -22,22 -51,23 -71,3 z"
       id="path10"
       style="fill:#007cc4;fill-opacity:1;stroke:#000000;stroke-width:409.48599243;stroke-miterlimit:4;stroke-dasharray:none;stroke-opacity:0"
       inkscape:connector-curvature="0" />
  </g>
</svg>
